<?xml version="1.0" encoding="UTF-8" standalone="no"?>
<!-- Created with Inkscape (http://www.inkscape.org/) -->

<svg
   version="1.1"
   id="svg11965"
   width="1200"
   height="1200"
   viewBox="0 0 1200 1200"
   sodipodi:docname="spaghetti-meal-pdv.svg"
   inkscape:version="1.2 (dc2aedaf03, 2022-05-15)"
   xmlns:inkscape="http://www.inkscape.org/namespaces/inkscape"
   xmlns:sodipodi="http://sodipodi.sourceforge.net/DTD/sodipodi-0.dtd"
   xmlns="http://www.w3.org/2000/svg"
   xmlns:svg="http://www.w3.org/2000/svg">
  <defs
     id="defs11969">
    <clipPath
       clipPathUnits="userSpaceOnUse"
       id="clipPath11985">
      <path
         d="M 0,900 H 900 V 0 H 0 Z"
         id="path11983" />
    </clipPath>
  </defs>
  <sodipodi:namedview
     id="namedview11967"
     pagecolor="#ffffff"
     bordercolor="#000000"
     borderopacity="0.25"
     inkscape:showpageshadow="2"
     inkscape:pageopacity="0.0"
     inkscape:pagecheckerboard="0"
     inkscape:deskcolor="#d1d1d1"
     showgrid="false"
     inkscape:zoom="0.6975"
     inkscape:cx="600"
     inkscape:cy="600.71685"
     inkscape:window-width="1920"
     inkscape:window-height="1017"
     inkscape:window-x="-8"
     inkscape:window-y="-8"
     inkscape:window-maximized="1"
     inkscape:current-layer="g11973">
    <inkscape:page
       x="0"
       y="0"
       id="page11971"
       width="1200"
       height="1200" />
  </sodipodi:namedview>
  <g
     id="g11973"
     inkscape:groupmode="layer"
     inkscape:label="Page 1"
     transform="matrix(1.3333333,0,0,-1.3333333,0,1200)">
    <g
       id="g11975"
       transform="translate(538.7734,430.001)">
      <path
         d="M 0,0 55.502,-55.502 19.822,-91.183 -35.68,-35.678 Z"
         style="fill:#333333;fill-opacity:1;fill-rule:evenodd;stroke:none"
         id="path11977" />
    </g>
    <g
       id="g11979">
      <g
         id="g11981"
         clip-path="url(#clipPath11985)">
        <g
           id="g11987"
           transform="translate(547.6797,727.9541)">
          <path
             d="m 0,0 c 94.59,-94.59 94.59,-247.949 0,-342.539 -94.59,-94.591 -247.949,-94.591 -342.539,0 -94.589,94.59 -94.589,247.949 0,342.539 C -247.949,94.589 -94.59,94.589 0,0"
             style="fill:#cccccc;fill-opacity:1;fill-rule:evenodd;stroke:none"
             id="path11989" />
        </g>
        <g
           id="g11991"
           transform="translate(536.6055,716.8794)">
          <path
             d="m 0,0 c 88.475,-88.473 88.475,-231.917 0,-320.389 -88.474,-88.474 -231.916,-88.474 -320.39,0 -88.473,88.472 -88.473,231.916 0,320.389 C -231.916,88.473 -88.474,88.473 0,0"
             style="fill:#333333;fill-opacity:1;fill-rule:evenodd;stroke:none"
             id="path11993" />
        </g>
        <g
           id="g11995"
           transform="translate(497.1348,677.4077)">
          <path
             d="m 0,0 c 66.674,-66.673 66.674,-174.772 0,-241.446 -66.674,-66.674 -174.773,-66.674 -241.447,0 -66.675,66.674 -66.675,174.773 0,241.446 C -174.773,66.674 -66.674,66.674 0,0"
             style="fill:#0d0d0d;fill-opacity:1;fill-rule:evenodd;stroke:none"
             id="path11997" />
        </g>
        <g
           id="g11999"
           transform="translate(430.5806,613.6084)">
          <path
             d="m 0,0 c -8.009,1.207 -17.413,-22.745 -27.774,-49.961 21.992,-8.802 41.78,-15.591 52.873,-8.354 5.684,3.705 9.32,8.029 11.244,12.591 2.227,5.275 2.213,11.03 0.467,16.593 -1.865,5.936 -5.664,11.686 -10.842,16.536 C 19.19,-6.241 10.127,-1.527 0,0 m -128.403,-51.048 c 7.692,-20.037 17.141,-36.205 26.966,-46.732 5.707,-6.116 11.418,-10.199 16.817,-11.849 4.571,-1.398 8.997,-0.908 13.015,1.789 3.122,2.094 6.12,5.447 8.908,10.181 1.492,2.533 3.02,5.426 4.579,8.592 1.535,3.121 3.068,6.474 4.594,9.985 3.082,7.089 5.989,14.436 8.803,21.748 -29.219,11.826 -60.24,23.405 -80.745,8.49 -0.999,-0.726 -1.979,-1.462 -2.937,-2.204 m 36.368,99.865 c 1.118,-45.267 -16.184,-56.468 -29.854,-65.319 -7.139,-4.623 -12.868,-8.332 -10.576,-21.139 26.149,18.275 60.36,5.617 92.451,-7.366 12.317,32.326 23.751,60.81 41.953,58.067 C 14.838,11.116 26.374,5.113 35.005,-2.973 41.8,-9.342 46.843,-17.06 49.394,-25.18 c 2.666,-8.495 2.639,-17.394 -0.867,-25.702 -2.905,-6.879 -8.153,-13.244 -16.184,-18.481 -16.444,-10.725 -39.563,-3.022 -64.822,7.076 -2.895,-7.523 -5.865,-15.033 -8.938,-22.099 -1.588,-3.659 -3.205,-7.191 -4.85,-10.534 -1.62,-3.297 -3.301,-6.457 -5.055,-9.433 -3.851,-6.542 -8.2,-11.314 -12.895,-14.462 -7.587,-5.092 -15.837,-6.053 -24.28,-3.473 -7.614,2.329 -15.269,7.656 -22.56,15.472 -10.188,10.918 -19.895,26.961 -27.891,46.551 -8.367,-8.335 -14.304,-17.198 -17.366,-25.96 -1.994,-5.708 -2.747,-11.33 -2.126,-16.663 0.617,-5.251 2.569,-10.325 5.991,-15.029 5.877,-8.078 16.067,-15.171 31.211,-20.461 54.403,-19.006 62.985,-15.058 97.049,0.609 l 3.548,1.631 0.018,0.019 c 30.326,13.911 5.09,38.821 5.016,38.892 l 9.366,9.292 c 0.111,-0.11 38.86,-38.332 -8.859,-60.218 l -0.004,0.007 -3.525,-1.623 c -37.95,-17.454 -47.513,-21.852 -106.962,-1.084 -17.819,6.226 -30.099,14.966 -37.505,25.145 -4.811,6.616 -7.565,13.8 -8.438,21.283 -0.867,7.402 0.109,15.006 2.746,22.553 4.234,12.118 12.805,24.201 24.912,35.095 -8.126,26.528 1.848,32.988 14.778,41.359 10.942,7.083 24.794,16.05 23.859,53.905 z"
             style="fill:#a86b2f;fill-opacity:1;fill-rule:evenodd;stroke:none"
             id="path12001" />
        </g>
        <g
           id="g12003"
           transform="translate(437.7788,684.1035)">
          <path
             d="m 0,0 c 10.573,-53.369 14.827,-81.731 11.992,-97.871 -3.43,-19.56 -14.744,-22.784 -34.969,-25.423 -11.782,-1.536 -22.536,-1.433 -32.302,-1.34 -17.477,0.167 -31.411,0.3 -39.679,-10.102 -3.589,-4.516 -8.215,-9.655 -13.134,-15.12 -15.026,-16.693 -33.06,-36.726 -30.984,-50.041 1.61,-10.334 4.683,-26.86 10.405,-40.301 4.927,-11.571 11.721,-20.692 20.849,-19.638 2.783,0.319 7.179,0.749 12.029,1.226 27.736,2.714 72.382,7.083 80.586,21.709 3.364,6 6.355,13.69 9.504,21.784 7.281,18.739 15.357,39.508 32.444,52.138 25.711,19.002 56.219,7.354 56.308,7.321 l -4.609,-12.365 c -0.07,0.024 -23.916,9.13 -43.797,-5.565 -14.051,-10.385 -21.392,-29.278 -28.021,-46.32 -3.306,-8.507 -6.449,-16.59 -10.308,-23.47 -11.56,-20.607 -60.452,-25.394 -90.827,-28.366 -4.058,-0.397 -7.743,-0.758 -11.808,-1.228 -16.638,-1.918 -27.443,11.015 -34.496,27.581 -6.26,14.702 -9.564,32.405 -11.284,43.447 -3.047,19.559 17.27,42.13 34.206,60.942 4.677,5.197 9.078,10.086 12.585,14.497 12.271,15.438 29.068,15.278 50.14,15.076 9.343,-0.089 19.627,-0.187 30.511,1.232 13.969,1.822 21.736,3.8 23.63,14.593 2.494,14.213 -1.679,41.358 -11.92,93.044 z"
             style="fill:#945a1f;fill-opacity:1;fill-rule:evenodd;stroke:none"
             id="path12005" />
        </g>
        <g
           id="g12007"
           transform="translate(320.9565,503.1289)">
          <path
             d="m 0,0 c -2.637,1.072 -6.055,1.64 -10.663,1.569 -16.945,-0.259 -33.015,-3.184 -43.331,-7.873 -3.746,-1.702 -6.552,-3.543 -8.097,-5.447 -0.759,-0.935 -1.069,-1.837 -0.807,-2.646 0.372,-1.162 1.419,-2.551 3.242,-4.187 5.502,-4.939 12.492,-9.632 19.749,-13.382 7.526,-3.894 15.266,-6.744 21.811,-7.757 5.083,-0.787 9.031,-0.51 10.668,1.315 0.169,0.191 0.315,0.396 0.427,0.613 C -3.874,-31.745 -0.777,-16.581 0,0 m 54.081,211.631 c 4.747,-4.749 11.476,-17.704 17.069,-30.612 6.834,-15.767 11.817,-32.685 9.906,-36.501 -0.299,-0.601 -1.342,-2.973 -2.759,-6.185 C 73.386,127.179 64.065,106.008 58.594,98.857 57.298,97.162 55.32,95.165 52.968,92.793 49.418,89.212 44.897,84.648 41.516,79.774 c -5.252,-7.566 -7.675,-16.6 3.627,-24.444 9.34,-6.481 23.001,-8.098 34.977,-9.517 9.613,-1.137 18.274,-2.163 24.653,-5.576 l 0.017,0.02 c 10.645,-5.694 13.998,-15.413 3.449,-35.136 -7.621,-14.249 -9.311,-27.816 -10.6,-38.164 -0.811,-6.502 -1.481,-11.886 -3.393,-16.344 -5.115,-11.935 -14.89,-14.299 -42.489,-2.472 -26.324,11.283 -34.544,24.951 -39.972,36.27 -1.653,-12.46 -4.364,-23.025 -7.081,-28.276 -0.657,-1.271 -1.437,-2.401 -2.329,-3.398 -4.974,-5.541 -13.088,-6.973 -22.482,-5.518 -7.933,1.227 -17.101,4.572 -25.87,9.107 -8.249,4.266 -16.225,9.623 -22.533,15.285 -3.597,3.231 -5.851,6.563 -6.935,9.928 -1.778,5.517 -0.528,10.568 3.114,15.05 2.852,3.518 7.284,6.577 12.853,9.105 11.926,5.42 29.961,8.795 48.632,9.079 4.228,0.066 7.821,-0.197 10.911,-0.746 -0.584,14.211 -3.289,27.469 -9.546,34.34 -5.046,5.539 -13.106,10.639 -20.979,15.624 -6.976,4.415 -13.825,8.746 -19.129,13.659 -11.259,10.426 -15.42,22.077 -0.988,37.659 12.698,13.714 26.35,26.835 39.057,35.157 14.45,9.465 28.089,12.981 38.937,5.421 9.276,-6.466 16.798,-13.881 19.346,-22.763 2.74,-9.544 -0.142,-19.772 -12.265,-30.684 L 14.676,84.6 l -8.854,9.803 19.825,17.84 c 7.695,6.929 9.773,12.559 8.422,17.261 -1.54,5.364 -7.149,10.587 -14.226,15.517 -5.507,3.838 -14.171,0.913 -24.122,-5.603 -11.696,-7.66 -24.561,-20.063 -36.641,-33.107 -7.344,-7.929 -5.3,-13.792 0.331,-19.002 4.371,-4.049 10.718,-8.067 17.188,-12.161 8.618,-5.454 17.438,-11.037 23.65,-17.855 8.77,-9.627 12.408,-26.203 13.042,-43.373 0.078,-2.06 0.109,-4.136 0.103,-6.214 3.853,-3.746 6.18,-8.753 8.836,-14.464 4.589,-9.878 10.487,-22.568 34.721,-32.956 18.032,-7.728 23.594,-8.112 25.15,-4.477 1.142,2.662 1.715,7.252 2.404,12.795 1.414,11.343 3.267,26.219 12.103,42.735 5.792,10.828 5.419,15.381 1.929,17.248 l 0.012,0.022 c -4.1,2.189 -11.637,3.081 -20.003,4.073 -13.464,1.592 -28.822,3.41 -40.938,11.82 -20.106,13.952 -16.027,29.692 -6.921,42.809 4.026,5.803 9.008,10.829 12.914,14.773 2.006,2.021 3.691,3.723 4.531,4.82 4.484,5.865 13.395,26.106 18.093,36.77 1.414,3.21 2.452,5.57 3.054,6.769 0.224,0.448 -4.711,12.471 -10.275,25.308 -5.048,11.653 -10.795,23.02 -14.287,26.515 z"
             style="fill:#d18e4b;fill-opacity:1;fill-rule:evenodd;stroke:none"
             id="path12009" />
        </g>
        <g
           id="g12011"
           transform="translate(318.397,722.7334)">
          <path
             d="m 0,0 c 12.552,-4.359 23.333,-6.063 32.598,-7.526 23.701,-3.744 38.689,-6.114 51.752,-39.868 5.429,-14.027 11.66,-22.796 16.325,-29.359 11.988,-16.863 16.115,-22.668 -9.146,-47.075 -11.042,-10.669 -25.055,-19.739 -37.767,-27.969 -13.438,-8.697 -25.314,-16.387 -28.8,-22.624 -1.409,-2.523 0.1,-5.347 6.447,-8.894 12.739,-7.12 24.228,-0.747 34.115,4.739 3.742,2.077 7.295,4.048 11.078,5.501 12.872,4.944 23.799,3.193 33.148,-21.147 5.942,-15.468 15.048,-28.28 22.146,-38.263 6.965,-9.798 12.242,-17.224 12.197,-24.038 -0.07,-10.237 -9.156,-15.05 -34.875,-14.873 -22.82,0.156 -44.205,5.923 -61.347,10.545 -13.141,3.542 -23.538,6.346 -28.259,5.065 -1.639,-0.447 -1.763,-3.525 0.288,-11.076 9.803,-36.073 61.675,-28.068 61.826,-28.047 l 1.939,-13.061 c -0.183,-0.027 -63.631,-9.841 -76.533,37.633 -4.573,16.839 -0.9,24.625 9.006,27.316 8.094,2.2 20.057,-1.024 35.173,-5.1 16.375,-4.415 36.807,-9.924 58.017,-10.07 15.937,-0.11 21.552,0.474 21.559,1.775 0.017,2.514 -4.192,8.437 -9.746,16.25 -7.513,10.569 -17.149,24.125 -23.719,41.226 -5.442,14.167 -10.494,15.689 -16.102,13.536 -2.701,-1.038 -5.945,-2.837 -9.358,-4.731 -12.869,-7.14 -27.823,-15.436 -47.028,-4.703 -14.741,8.24 -16.95,17.132 -11.498,26.892 5.08,9.082 18.236,17.6 33.117,27.234 12.268,7.939 25.79,16.694 35.794,26.358 17.095,16.52 14.66,19.953 7.574,29.919 -5.092,7.164 -11.896,16.734 -17.9,32.248 -10.321,26.674 -22.405,28.583 -41.51,31.601 -9.758,1.542 -21.112,3.336 -34.864,8.113 z"
             style="fill:#e6a96c;fill-opacity:1;fill-rule:evenodd;stroke:none"
             id="path12013" />
        </g>
        <g
           id="g12015"
           transform="translate(467.25,672.5234)">
          <path
             d="m 0,0 c 5.816,-4.846 12.52,-8.12 18.896,-11.237 16.52,-8.076 31.219,-15.259 33.764,-44.038 1.164,-13.155 6.658,-21.291 10.672,-27.235 1.543,-2.282 2.898,-4.291 4.02,-6.532 5.007,-10.017 3.269,-16.799 -17.075,-26.971 -20.615,-10.308 -30.463,-3.039 -37.769,2.359 -2.35,1.734 -3.895,2.873 -8.619,-4.863 -12.614,-20.659 -11.537,-24.319 -8.215,-35.612 0.832,-2.824 1.781,-6.052 2.787,-10.172 0.98,-4.012 2.277,-8.42 3.568,-12.811 6.278,-21.349 12.489,-42.467 -6.73,-51.255 -3.684,-1.684 -9.344,-5.22 -15.75,-9.223 -8.926,-5.578 -19.246,-12.025 -29.018,-16.415 -16.36,-7.347 -31.191,-9.015 -37.857,5.831 -5.425,12.074 -9.068,21.062 -10.134,30.055 -1.122,9.437 0.586,18.31 6.021,29.596 6.048,12.562 16.61,10.144 25.786,8.046 2.66,-0.612 5.109,-1.173 5.529,-1.013 0.533,0.2 -1.058,5.438 -8.262,24.426 -6.721,17.71 -10.944,32.61 -14.119,43.81 -3.166,11.17 -5.133,18.101 -6.039,18.655 -1,0.614 -1.159,-4.774 -7.077,-14.438 -8.121,-13.261 -13.612,-23.237 -18.02,-31.244 -8.041,-14.613 -12.636,-22.963 -23.169,-33.496 -8.685,-8.685 -16.779,-15.666 -25.893,-16.857 -9.855,-1.287 -19.204,3.924 -28.619,20.212 -5.904,10.216 -9.828,22.432 -13.46,33.741 -5.281,16.442 -9.803,30.52 -16.822,28.405 -6.748,-2.033 -12.636,-1.272 -17.289,1.438 -3.73,2.171 -6.514,5.541 -8.206,9.697 -1.552,3.811 -2.163,8.251 -1.695,12.944 0.926,9.268 6.085,19.932 16.615,28.745 9.313,7.796 11.218,15.667 12.728,21.919 2.539,10.512 4.36,18.043 20.825,19.672 7.306,0.722 16.829,5.54 25.413,9.887 9.308,4.71 17.678,8.948 24.269,8.424 7.711,-0.61 12.011,-5.305 11.092,-16.868 -2.195,-27.666 -23.015,-50.089 -23.073,-50.154 l -9.697,8.963 c 0.051,0.055 17.772,19.14 19.602,42.217 0.159,1.992 1.574,2.632 1.052,2.673 -2.893,0.229 -9.69,-3.21 -17.245,-7.033 -9.619,-4.87 -20.286,-10.267 -30.131,-11.241 -7.105,-0.703 -8.008,-4.438 -9.268,-9.649 -1.959,-8.108 -4.426,-18.315 -17.08,-28.906 -7.615,-6.373 -11.31,-13.733 -11.934,-19.966 -0.256,-2.578 0.013,-4.856 0.746,-6.652 0.59,-1.452 1.491,-2.586 2.645,-3.259 1.573,-0.918 3.869,-1.084 6.825,-0.193 19.437,5.854 25.788,-13.931 33.212,-37.038 3.41,-10.624 7.095,-22.096 12.325,-31.145 6.195,-10.717 11.095,-14.308 15.487,-13.738 5.131,0.671 11.285,6.2 18.212,13.127 9.321,9.323 13.559,17.023 20.973,30.495 4.44,8.068 9.97,18.118 18.347,31.795 10.784,17.606 17.461,23.509 25.223,18.756 5.292,-3.241 7.79,-12.057 11.819,-26.267 3.082,-10.869 7.184,-25.33 13.79,-42.749 10.9,-28.725 8.629,-38.421 0.58,-41.473 -4.125,-1.565 -8.441,-0.579 -13.141,0.498 -4.407,1.009 -9.483,2.172 -10.968,-0.909 -4.23,-8.785 -5.587,-15.456 -4.778,-22.279 0.864,-7.273 4.144,-15.278 9.037,-26.176 2.453,-5.46 10.756,-3.566 20.374,0.753 8.964,4.027 18.872,10.216 27.445,15.573 6.725,4.204 12.672,7.918 17.285,10.028 8.821,4.033 4.217,19.692 -0.439,35.524 -1.301,4.426 -2.607,8.864 -3.715,13.397 -0.881,3.601 -1.82,6.794 -2.642,9.586 -4.571,15.54 -6.055,20.577 9.605,46.22 12.256,20.073 18.402,15.533 27.75,8.63 4.547,-3.356 10.672,-7.878 23.981,-1.224 10.554,5.277 12.214,7.28 11.222,9.266 -0.631,1.256 -1.822,3.024 -3.178,5.032 -4.83,7.149 -11.441,16.937 -12.906,33.491 -1.887,21.332 -13.431,26.975 -26.408,33.317 -7.002,3.423 -14.355,7.018 -21.531,12.997 z"
             style="fill:#f7c38f;fill-opacity:1;fill-rule:evenodd;stroke:none"
             id="path12017" />
        </g>
        <g
           id="g12019"
           transform="translate(444.2759,686.8945)">
          <path
             d="m 0,0 c -5.765,1.713 -10.136,4.172 -14.015,6.356 -6.514,3.666 -10.897,6.132 -21.909,-5.554 -6.438,-6.832 -13.335,-11.392 -19.373,-15.384 -10.385,-6.864 -17.226,-11.387 -5.295,-28.292 9.399,-13.317 16.604,-21.005 21.981,-26.742 8.356,-8.915 12.912,-13.778 14.589,-25.345 0.367,-2.535 0.833,-4.873 1.318,-7.311 3.65,-18.334 8.24,-41.383 -21.964,-54.564 -10.431,-4.553 -18.265,-8.803 -24.695,-12.297 -12.893,-6.997 -20.797,-11.289 -32.444,-9.753 -9.022,1.191 -20.604,9.461 -31.434,17.197 -8.949,6.389 -17.274,12.335 -18.87,11.94 -1.164,-0.29 -2.063,-0.477 -2.777,-0.62 -1.353,-2.119 -3.913,-6.019 -10.075,-13.386 -4.711,-5.633 -9.157,-9.014 -12.692,-11.702 -4.509,-3.432 -6.01,-4.572 5.985,-19.366 5.225,-6.441 10.061,-13.317 14.816,-20.073 14.655,-20.831 28.424,-40.408 42.126,-30.684 l 7.681,-10.759 c -24.562,-17.428 -42.021,7.387 -60.598,33.795 -4.708,6.69 -9.495,13.496 -14.268,19.38 -20.593,25.396 -16.394,28.59 -3.755,38.204 3.048,2.318 6.876,5.231 10.608,9.693 5.922,7.079 8.124,10.54 9.267,12.334 0.767,1.204 1.228,1.928 2.065,2.763 l 0.02,0.019 c 1.939,1.922 3.007,2.127 5.66,2.642 0.664,0.129 1.554,0.303 2.754,0.599 7.498,1.856 18.214,-5.798 29.734,-14.024 9.537,-6.811 19.734,-14.093 25.51,-14.855 7.364,-0.972 13.825,2.535 24.361,8.254 6.707,3.643 14.878,8.078 25.714,12.808 20.487,8.938 17.051,26.181 14.323,39.895 -0.584,2.925 -1.141,5.728 -1.467,7.97 -1.089,7.513 -4.627,11.289 -11.112,18.211 -5.708,6.087 -13.351,14.245 -23.154,28.133 -19.791,28.042 -8.434,35.55 8.808,46.947 5.448,3.601 11.669,7.715 17.069,13.446 18.072,19.183 26.089,14.672 38.007,7.966 3.228,-1.818 6.866,-3.864 11.304,-5.184 z"
             style="fill:#945a1f;fill-opacity:1;fill-rule:evenodd;stroke:none"
             id="path12021" />
        </g>
        <g
           id="g12023"
           transform="translate(449.3042,469.7187)">
          <path
             d="m 0,0 c -18.422,-15.68 -37.093,-9.301 -59.207,0.084 -1.504,-11.976 -1.007,-27.32 7.681,-48.245 6.152,-14.814 9.709,-19.583 12.186,-18.556 4.2,1.742 9.942,11.033 17.119,22.64 10.518,17.007 23.79,38.477 43.768,53.118 31.932,23.406 31.973,24.369 32.387,34.493 0.229,5.535 0.539,13.107 3.42,25.388 2.363,10.074 3.021,13.689 2.67,13.771 C 58.077,83.15 52.264,80.805 44.821,77.799 36.457,74.421 26.342,70.339 14.938,68.052 2.811,65.62 5.069,55.217 7.565,43.712 10.84,28.624 14.393,12.253 0,0 m -125.993,62.264 c 1.142,-4.593 2.744,-9.074 4.919,-13.251 5.269,-10.123 14.052,-18.493 28.073,-22.155 8.486,-2.217 16.398,-5.161 23.863,-8.224 2.087,9.866 2.573,16.633 -8.802,23.851 l -0.711,0.451 c -2.989,1.894 -5.852,3.71 -10.775,6.741 -14.669,9.029 -26.484,15.004 -36.567,12.587 m -24.615,156.044 c 17.579,6.446 22.822,5.553 28.329,4.617 3.271,-0.558 6.684,-1.138 17.185,1.952 7.925,2.332 15.912,8.298 23.454,13.932 17.45,13.035 33.025,24.668 49.519,3.341 5.899,-7.628 13.411,-12.015 20.089,-15.913 16.126,-9.415 28.45,-16.611 18.687,-48.758 -6.66,-21.914 -11.731,-33.651 -18.974,-40.542 -7.903,-7.514 -16.832,-8.69 -31.232,-9.617 -11.575,-0.743 -21.166,1.594 -29.732,3.683 -9.871,2.405 -18.062,4.401 -24.876,-0.921 -3.858,-3.014 -7.725,-5.466 -11.316,-7.744 -9.261,-5.878 -16.281,-10.332 -18.2,-26.648 -0.673,-5.728 -0.96,-12.25 -0.512,-18.963 13.112,2.602 27.825,-4.772 45.712,-15.782 2.024,-1.248 6.388,-4.013 10.918,-6.889 l 0.712,-0.452 c 20.076,-12.734 17.749,-23.543 14.09,-40.224 19.179,-8.218 35.105,-14.432 48.156,-3.321 8.393,7.144 5.717,19.472 3.251,30.839 -3.992,18.401 -7.606,35.04 17.651,40.104 10.244,2.054 19.733,5.883 27.578,9.052 9.608,3.877 17.108,6.904 23.178,5.479 C 71.873,93.467 74.786,85.462 70.194,65.885 67.633,54.969 67.348,48.046 67.141,42.985 66.487,27.043 66.424,25.525 29.413,-1.603 11.456,-14.767 -1.068,-35.02 -10.989,-51.065 c -8.398,-13.58 -15.118,-24.449 -23.268,-27.834 -10.389,-4.312 -19.583,1.886 -29.452,25.655 -10.886,26.222 -10.421,44.637 -8.103,58.708 -7.729,3.227 -15.901,6.376 -24.519,8.628 -18.201,4.752 -29.603,15.627 -36.451,28.775 -1.974,3.794 -3.557,7.772 -4.805,11.835 -1.431,-1.647 -2.829,-3.568 -4.2,-5.795 -6.618,-10.752 -7.202,-24.7 -7.652,-35.511 -0.376,-9.013 -0.677,-16.261 -4.295,-20.827 -5.425,-6.843 -13.875,-6.109 -30.032,6.694 -5.949,4.714 -11.121,8.614 -15.745,12.102 -29.539,22.273 -40.046,30.199 -20.742,59.66 19.1,29.154 34.79,46.884 34.834,46.935 l 9.878,-8.779 c -0.044,-0.049 -15.103,-17.071 -33.666,-45.4 -12.522,-19.114 -4.6,-25.088 17.672,-41.881 4.868,-3.67 10.315,-7.779 16.001,-12.285 8.427,-6.676 11.365,-8.915 11.447,-8.814 0.944,1.19 1.166,6.519 1.442,13.144 0.516,12.333 1.177,28.248 9.59,41.913 3.984,6.474 8.031,11.287 12.203,14.69 -1.111,9.477 -0.85,18.763 0.08,26.68 2.656,22.558 11.941,28.452 24.201,36.23 3.152,2.001 6.547,4.154 10.255,7.05 11.85,9.255 22.865,6.571 36.142,3.335 7.615,-1.856 16.145,-3.936 25.783,-3.316 11.384,0.733 18.308,1.532 22.959,5.957 5.312,5.051 9.507,15.226 15.463,34.835 6.731,22.149 -1.697,27.068 -12.721,33.505 -7.701,4.498 -16.368,9.556 -23.857,19.241 -8.551,11.055 -19.211,3.093 -31.154,-5.828 -8.452,-6.314 -17.402,-12.998 -27.663,-16.017 -13.455,-3.961 -18.383,-3.122 -23.11,-2.318 -3.732,0.634 -7.287,1.239 -21.563,-3.997 z"
             style="fill:#d18e4b;fill-opacity:1;fill-rule:evenodd;stroke:none"
             id="path12025" />
        </g>
        <g
           id="g12027"
           transform="translate(302.4077,693.4946)">
          <path
             d="m 0,0 c 10.411,-7.038 8.42,-8.905 9.31,-8.071 3.232,3.031 9.073,8.506 37.486,3.008 24.589,-4.757 42.844,-9.05 58.037,-13.748 15.331,-4.738 27.436,-9.858 39.624,-16.237 6.866,-3.591 13.915,-4.436 20.129,-5.182 16.592,-1.991 28.778,-3.453 30.387,-34.029 0.52,-9.874 2.24,-19.28 3.752,-27.563 2.004,-10.959 3.68,-20.134 2.158,-27.24 -2.429,-11.326 -10.379,-16.339 -30.048,-12.121 -22.084,4.735 -22.294,5.036 -27.135,11.995 -2.803,4.029 -7.991,11.486 -31.22,28.719 -17.06,12.658 -29.299,24.617 -38.723,33.828 -6.333,6.19 -11.316,11.06 -15.356,13.722 -4.533,2.983 -8.231,1.549 -14.182,-7.488 -11.786,-17.896 -11.567,-25.577 -11.334,-33.791 0.16,-5.598 0.324,-11.398 -1.981,-19.769 -1.325,-4.815 -2.339,-9.785 -3.285,-14.392 -0.519,-2.539 -1.017,-4.973 -1.378,-6.589 -3.343,-14.916 -7.665,-24.92 -21.95,-21.719 -7.082,1.588 -11.037,7.594 -15.306,14.07 -5.283,8.017 -11.337,17.204 -26.899,6.407 -13.884,-9.632 -24.72,-20.76 -29.878,-30.006 -1.779,-3.188 -2.777,-5.953 -2.844,-8.083 -0.031,-1 0.228,-1.764 0.823,-2.203 1.027,-0.761 2.819,-1.263 5.475,-1.439 26.867,-1.793 77.92,-24.568 78.068,-24.632 l -5.342,-12.073 c -0.139,0.064 -49.108,21.901 -73.605,23.535 -5.336,0.355 -9.468,1.758 -12.499,4.001 -4.365,3.228 -6.294,7.772 -6.126,13.214 0.133,4.31 1.722,9.127 4.528,14.156 6.041,10.829 18.337,23.586 33.863,34.358 26.686,18.515 36.704,3.315 45.448,-9.956 2.737,-4.154 5.275,-8.005 7.182,-8.433 1.948,-0.438 3.29,1.612 4.448,5.161 0.594,1.824 1.144,4.047 1.7,6.532 0.554,2.47 0.943,4.369 1.344,6.332 0.974,4.76 2.025,9.897 3.504,15.271 1.772,6.437 1.636,11.23 1.506,15.854 -0.297,10.369 -0.571,20.064 13.525,41.475 11.532,17.511 20.184,19.311 32.475,11.217 5.047,-3.323 10.456,-8.61 17.331,-15.331 9.048,-8.844 20.799,-20.326 37.371,-32.621 24.859,-18.441 30.887,-27.108 34.147,-31.791 1.984,-2.853 2.068,-2.977 19.047,-6.618 10.011,-2.147 13.732,-1.122 14.392,1.95 0.979,4.566 -0.484,12.566 -2.228,22.12 -1.602,8.755 -3.418,18.7 -3.973,29.244 -1.023,19.464 -8.531,20.365 -18.756,21.592 -7.336,0.88 -15.658,1.879 -24.698,6.61 -11.505,6.02 -22.927,10.852 -37.396,15.323 -14.604,4.516 -32.431,8.696 -56.645,13.382 -21.807,4.218 -24.461,1.732 -25.929,0.356 -5.324,-4.994 -6.607,-6.197 -25.77,6.755 z"
             style="fill:#e6a96c;fill-opacity:1;fill-rule:evenodd;stroke:none"
             id="path12029" />
        </g>
        <g
           id="g12031"
           transform="translate(490.791,669.5508)">
          <path
             d="m 0,0 c -3.607,-17.027 -2.221,-25.336 -1.379,-30.362 1.936,-11.597 2.178,-13.049 -17.451,-23.265 -11.914,-6.201 -22.623,-7.008 -32.305,-7.735 -11.539,-0.868 -21.253,-1.6 -28.149,-15.034 -3.965,-7.718 -8.959,-14.001 -13.337,-19.51 -3.947,-4.968 -7.314,-9.204 -8.057,-12.128 -0.903,-3.545 4.902,-7.111 26.847,-12.691 24.496,-6.227 36.36,1.624 44.05,6.713 2.529,1.674 4.705,3.114 7.051,4.084 9.683,4.015 16.005,0.865 25.314,-21.593 6.809,-16.434 13.564,-26.205 18.396,-33.186 10.307,-14.903 13.852,-20.027 -0.337,-38.125 -5.498,-7.013 -7.264,-15.296 -8.821,-22.594 -3.806,-17.849 -6.695,-31.391 -39.07,-26.52 l -1.176,0.176 -1.017,0.556 c -13.002,7.09 -24.223,23.803 -35.537,40.653 -15.907,23.694 -32.036,47.711 -48.562,36.807 -15.878,-10.48 -15.221,-12.997 -14.656,-15.162 1.542,-5.899 2.886,-11.042 -11.124,-19.807 -6.907,-4.32 -9.816,-16.347 -11.961,-25.211 -1.904,-7.875 -3.396,-14.037 -8.367,-16.204 -6.765,-2.954 -13.663,3.785 -24.331,28.234 -15.882,36.401 -16.247,52.612 -16.532,65.247 -0.162,7.229 -0.297,13.111 -4.115,21.508 -4.233,9.301 -4.666,17.878 -5.02,24.852 -0.169,3.317 -0.314,6.187 -0.855,7.864 l -0.018,0.019 c -0.577,1.801 -4.057,1.74 -16.682,-2.314 -20.02,-6.431 -34.056,-10.903 -41.467,-9.071 -12.126,2.998 -11.469,12.957 4.106,35.08 6.393,9.078 10.861,16.827 14.443,23.038 11.174,19.372 15.39,26.687 36.291,19.148 22.595,-8.149 41.371,-19.913 41.422,-19.947 l -7.06,-11.159 c -0.05,0.032 -17.628,11.047 -38.86,18.705 -10.458,3.772 -13.168,-0.925 -20.345,-13.368 -3.709,-6.434 -8.338,-14.461 -15.098,-24.063 -7.549,-10.72 -12.565,-14.385 -11.717,-14.595 3.865,-0.954 16.363,3.041 34.225,8.779 22.701,7.292 30.111,3.805 33.325,-6.209 l -0.009,-0.005 c 1.068,-3.335 1.253,-7.003 1.469,-11.244 0.297,-5.836 0.66,-13.011 3.849,-20.024 4.966,-10.92 5.127,-17.983 5.322,-26.664 0.261,-11.498 0.594,-26.256 15.435,-60.271 6.712,-15.384 5.549,-22.028 6.917,-21.43 1.018,0.442 -0.205,2.913 0.831,7.204 2.683,11.088 6.322,26.131 17.779,33.296 5.81,3.634 5.609,4.403 5.381,5.281 -1.67,6.397 -3.612,13.825 20.142,29.503 27.488,18.141 47.287,-11.344 66.818,-40.43 10.089,-15.027 20.1,-29.935 29.916,-35.883 18.963,-2.509 20.711,5.664 22.994,16.373 1.864,8.733 3.977,18.648 11.346,28.044 8.174,10.428 6.057,13.492 -0.104,22.396 -5.181,7.492 -12.427,17.971 -19.75,35.637 -5.171,12.482 -6.837,14.998 -8.045,14.499 -1.205,-0.5 -2.892,-1.617 -4.857,-2.915 -9.611,-6.36 -24.445,-16.177 -54.622,-8.504 -31.873,8.101 -39.364,16.97 -36.36,28.785 1.438,5.653 5.614,10.906 10.511,17.066 4.031,5.074 8.628,10.86 11.944,17.316 10.28,20.015 23.348,20.998 38.869,22.167 8.382,0.63 17.652,1.327 27.225,6.309 11.122,5.79 11.058,6.184 10.535,9.326 -0.998,5.959 -2.643,15.806 1.488,35.3 z"
             style="fill:#fcd5ae;fill-opacity:1;fill-rule:evenodd;stroke:none"
             id="path12033" />
        </g>
        <g
           id="g12035"
           transform="translate(274.1167,682.792)">
          <path
             d="m 0,0 c 12.958,3.212 21.766,8.372 28.845,12.52 14.279,8.364 23.032,13.491 40.083,-0.05 7.035,-5.591 17.502,-2.283 25.016,0.093 5.951,1.88 10.698,3.38 14.971,1.371 6.652,-3.123 7.085,-10.948 -1.89,-30.054 -10.703,-22.786 -17.073,-26.803 -21.38,-29.521 -2.386,-1.503 -3.486,-2.199 -6.629,-22.785 -1.447,-9.475 -3.668,-17.343 -6.018,-23.701 13.459,8.423 17.333,14.62 21.211,20.829 4.253,6.805 8.512,13.622 21.403,22.433 8.594,5.874 14.268,13.725 18.48,19.549 3.83,5.299 6.724,9.304 10.868,10.825 7.487,2.75 12.941,-1.809 19.201,-18.863 4.492,-12.231 8.206,-18.336 11.017,-22.957 5.627,-9.246 8.278,-13.598 7.08,-36.596 -0.558,-10.737 2.164,-14.535 3.649,-16.61 2.478,-3.457 3.949,-5.52 1.445,-10.087 -1.693,-3.092 -5.246,-4.961 -14.003,-9.564 -4.119,-2.162 -9.55,-5.017 -16.129,-8.611 -10.947,-5.984 -19.075,-10.933 -25.592,-14.902 -23.662,-14.409 -28.371,-17.277 -56.263,-8.059 -23.346,7.717 -21.841,-12.405 -21.836,-12.464 l -13.171,-0.803 c -0.006,0.112 -2.924,39.717 39.141,25.815 22.115,-7.31 25.952,-4.973 45.253,6.779 6.716,4.092 15.095,9.194 26.139,15.229 7.229,3.952 12.392,6.663 16.311,8.723 2.816,1.479 4.789,2.398 6.13,3 -2.326,3.882 -4.9,10.321 -4.279,22.248 0.983,18.956 -0.977,22.18 -5.143,29.025 -3.123,5.134 -7.252,11.919 -12.15,25.263 -2.863,7.797 -1.117,11.44 -2.229,11.032 -0.396,-0.146 -2.276,-2.744 -4.759,-6.178 -4.786,-6.619 -11.235,-15.544 -21.697,-22.696 -10.606,-7.248 -14.142,-12.907 -17.672,-18.555 -5.011,-8.022 -10.014,-16.03 -28.879,-27.1 -5.928,-3.48 -9.983,-6.139 -12.488,-7.782 -9.508,-6.237 -13.368,-8.737 -13.646,3.495 v 0.036 c -0.043,2.219 0.782,3.562 2.171,5.821 2.825,4.584 10.211,16.584 13.396,37.438 4.048,26.521 6.756,28.229 12.628,31.932 3.009,1.897 7.452,4.702 16.514,23.995 4.741,10.088 9.438,11.906 8.181,12.497 -0.477,0.224 -2.108,-1.043 -5.347,-2.067 -10.315,-3.26 -24.68,-7.8 -37.237,2.174 C 50.723,10.038 44.951,6.658 35.538,1.144 27.677,-3.462 17.895,-9.194 3.183,-12.84 Z"
             style="fill:#fcd5ae;fill-opacity:1;fill-rule:evenodd;stroke:none"
             id="path12037" />
        </g>
        <g
           id="g12039"
           transform="translate(280.4722,536.126)">
          <path
             d="m 0,0 c -2.934,-12.483 -7.373,-22.732 -11.055,-31.228 -2.687,-6.207 -4.939,-11.406 -5.571,-15.07 -0.511,-2.942 1.272,-4.902 8.048,-6.072 8.724,-1.506 14.236,-1.34 18.997,-1.195 11.413,0.346 19.202,0.584 47.014,-15.354 22.327,-12.794 27.163,-24.976 30.763,-34.049 2.104,-5.303 3.545,-8.927 12.367,-9.675 14.742,-1.246 20.792,-11.37 24.947,-18.324 0.953,-1.592 0.346,-2.312 1.026,-2.582 1.638,-0.65 -0.748,4.857 4.629,18.392 7.186,18.1 6.57,30.268 6.116,39.251 -0.889,17.522 -1.314,25.931 30.474,36.302 23.197,7.57 37.062,5.667 46.247,4.408 5.731,-0.785 8.287,-1.134 11.133,6.273 3.088,8.053 7.168,14.272 10.869,19.911 6.377,9.727 11.328,17.271 3.203,30.11 -2.38,3.761 -4.619,7.427 -6.695,10.825 -8.965,14.688 -14.24,23.329 -19.349,21.381 l -24.52,-9.361 -4.684,12.367 c 0.125,0.046 13.528,5.143 24.485,9.324 15.375,5.863 22.767,-6.247 35.338,-26.832 1.994,-3.271 4.148,-6.796 6.584,-10.645 12.679,-20.034 5.689,-30.683 -3.319,-44.41 l -0.019,-0.017 c -3.321,-5.062 -6.983,-10.641 -9.565,-17.371 -6.591,-17.173 -12.353,-16.384 -25.252,-14.614 -7.964,1.091 -19.986,2.74 -40.324,-3.896 -22.237,-7.255 -21.979,-12.395 -21.438,-23.096 0.52,-10.246 1.223,-24.123 -6.995,-44.811 -9.152,-23.049 -14.732,-28.597 -21.823,-25.783 -3.461,1.376 -5.227,4.33 -7.46,8.071 -2.746,4.595 -6.748,11.287 -14.705,11.959 -17.01,1.438 -19.67,8.135 -23.562,17.941 -2.875,7.243 -6.734,16.966 -25.055,27.465 -24.609,14.1 -30.865,13.911 -40.027,13.633 -5.397,-0.163 -11.64,-0.352 -21.668,1.38 -16.751,2.893 -20.773,9.971 -18.804,21.362 0.913,5.286 3.435,11.113 6.449,18.07 3.514,8.107 7.748,17.884 10.362,28.996 z"
             style="fill:#fcd5ae;fill-opacity:1;fill-rule:evenodd;stroke:none"
             id="path12041" />
        </g>
        <g
           id="g12043"
           transform="translate(594.2754,374.499)">
          <path
             d="m 0,0 156.596,-156.597 c 9.812,-9.812 9.812,-25.868 0,-35.68 -9.811,-9.812 -25.867,-9.812 -35.68,0 L -35.68,-35.681 Z"
             style="fill:#cc3300;fill-opacity:1;fill-rule:evenodd;stroke:none"
             id="path12045" />
        </g>
      </g>
    </g>
  </g>
</svg>
